<svg width="128" height="128" viewBox="0 0 128 128" fill="none" xmlns="http://www.w3.org/2000/svg">
<g clip-path="url(#clip0_3_2)">
<rect x="13" y="14" width="101" height="100" rx="23" fill="#077063"/>
<path d="M90.4 20H37.3C27.2 20 19 28.2 19 38.3V91.4C19 101.5 27.2 109.7 37.3 109.7H90.4C100.5 109.7 108.7 101.5 108.7 91.4V38.2C108.7 28.1 100.5 20 90.4 20ZM107.2 91.6C107.2 100.8 99.8 108.2 90.6 108.2H37.1C28 108.2 20.5 100.8 20.5 91.6V38C20.5 28.8 27.9 21.4 37.1 21.4H90.7C99.8 21.4 107.3 28.8 107.3 38V91.6H107.2Z" fill="white" fill-opacity="0.31"/>
<path d="M64 23.6001C41.4 23.6001 23 42.0001 23 64.6001C23 87.2001 41.4 105.6 64 105.6C86.7 105.6 105 87.2001 105 64.6001C105 42.0001 86.6 23.6001 64 23.6001ZM64 105C41.7 105 23.6 86.9001 23.6 64.6001C23.6 42.3001 41.7 24.2001 64 24.2001C86.3 24.2001 104.4 42.3001 104.4 64.6001C104.4 86.9001 86.3 105 64 105Z" fill="#69C5F3"/>
<path d="M64 32C45.9 32 31.3 46.6 31.3 64.7C31.3 82.8 45.9 97.3 64 97.3C82.1 97.3 96.7001 82.7 96.7001 64.6C96.7001 46.5 82 32 64 32ZM64 96.6C46.3 96.6 32 82.3 32 64.6C32 46.9 46.3 32.6 64 32.6C81.7 32.6 96 46.9 96 64.6C96 82.3 81.6 96.6 64 96.6Z" fill="#68C5F4"/>
<path opacity="0.1" d="M32.7365 41.5008C31.9952 41.5037 31.2713 41.7263 30.6564 42.1404C29.8315 42.696 29.2611 43.5565 29.0706 44.5326C28.8802 45.5087 29.0853 46.5206 29.6408 47.3455L37.468 58.9812C30.0135 65.5162 25.0043 74.7487 24.006 85.1531C23.8223 89.003 27.8879 89.0008 27.8879 89.0008H100.017C100.017 89.0008 104.199 88.9999 103.996 84.9578C102.955 74.6292 97.9572 65.4657 90.5441 58.9715L98.3615 47.3455C98.9171 46.5206 99.1222 45.5087 98.9317 44.5326C98.7412 43.5565 98.1708 42.696 97.3459 42.1404C96.5212 41.5846 95.5096 41.3791 94.5334 41.5691C94.0499 41.6635 93.5897 41.8523 93.1792 42.1245C92.7687 42.3968 92.4158 42.7473 92.1408 43.156L84.4601 54.572C78.4674 51.038 71.4762 49.0008 64.006 49.0008C56.5326 49.0008 49.5406 51.0395 43.5471 54.5769L35.8615 43.156C35.5865 42.7473 35.2336 42.3968 34.8231 42.1245C34.4126 41.8523 33.9524 41.6635 33.4689 41.5691C33.2276 41.5224 32.9823 41.4995 32.7365 41.5008Z" fill="black"/>
<path d="M42.0007 56.5007L32.7512 42.7506" stroke="#30DD81" stroke-width="7.5" stroke-linecap="round"/>
<path d="M86.0006 56.5007L95.2512 42.7506" stroke="#30DD81" stroke-width="7.5" stroke-linecap="round"/>
<path d="M64.0072 46.5006C43.1175 46.5006 25.9534 62.3677 24.0073 82.6529C23.8235 86.5027 27.8875 86.5005 27.8875 86.5005H100.016C100.016 86.5005 104.197 86.4997 103.994 82.4576C101.958 62.2645 84.8308 46.5006 64.0072 46.5006Z" fill="#30DD81"/>
<path opacity="0.2" d="M44.0012 66.5006C43.3446 66.5006 42.6944 66.6299 42.0878 66.8812C41.4812 67.1325 40.93 67.5008 40.4657 67.9651C40.0014 68.4294 39.6331 68.9806 39.3818 69.5872C39.1305 70.1938 39.0012 70.844 39.0012 71.5006C39.0012 72.1572 39.1305 72.8074 39.3818 73.414C39.6331 74.0207 40.0014 74.5719 40.4657 75.0361C40.93 75.5004 41.4812 75.8687 42.0878 76.12C42.6944 76.3713 43.3446 76.5006 44.0012 76.5006C44.6578 76.5006 45.308 76.3713 45.9146 76.12C46.5213 75.8687 47.0725 75.5004 47.5368 75.0361C48.0011 74.5719 48.3693 74.0207 48.6206 73.414C48.8719 72.8074 49.0012 72.1572 49.0012 71.5006C49.0012 70.844 48.8719 70.1938 48.6206 69.5872C48.3693 68.9806 48.0011 68.4294 47.5368 67.9651C47.0725 67.5008 46.5213 67.1325 45.9146 66.8812C45.308 66.6299 44.6578 66.5006 44.0012 66.5006ZM84.0012 66.5006C83.3446 66.5006 82.6944 66.6299 82.0878 66.8812C81.4812 67.1325 80.93 67.5008 80.4657 67.9651C80.0014 68.4294 79.6331 68.9806 79.3818 69.5872C79.1305 70.1938 79.0012 70.844 79.0012 71.5006C79.0012 72.1572 79.1305 72.8074 79.3818 73.414C79.6331 74.0207 80.0014 74.5719 80.4657 75.0361C80.93 75.5004 81.4812 75.8687 82.0878 76.12C82.6944 76.3713 83.3446 76.5006 84.0012 76.5006C84.6578 76.5006 85.308 76.3713 85.9146 76.12C86.5213 75.8687 87.0725 75.5004 87.5368 75.0361C88.0011 74.5719 88.3693 74.0207 88.6206 73.414C88.8719 72.8074 89.0012 72.1572 89.0012 71.5006C89.0012 70.844 88.8719 70.1938 88.6206 69.5872C88.3693 68.9806 88.0011 68.4294 87.5368 67.9651C87.0725 67.5008 86.5213 67.1325 85.9146 66.8812C85.308 66.6299 84.6578 66.5006 84.0012 66.5006Z" fill="black"/>
<path d="M44.0012 64.0006C44.6578 64.0006 45.308 64.1299 45.9146 64.3812C46.5213 64.6325 47.0724 65.0008 47.5367 65.4651C48.001 65.9294 48.3693 66.4806 48.6206 67.0872C48.8719 67.6938 49.0012 68.344 49.0012 69.0006C49.0012 69.6572 48.8719 70.3074 48.6206 70.914C48.3693 71.5206 48.001 72.0718 47.5367 72.5361C47.0724 73.0004 46.5213 73.3687 45.9146 73.62C45.308 73.8713 44.6578 74.0006 44.0012 74.0006C43.3446 74.0006 42.6944 73.8713 42.0878 73.62C41.4812 73.3687 40.93 73.0004 40.4657 72.5361C40.0014 72.0718 39.6331 71.5206 39.3818 70.914C39.1305 70.3074 39.0012 69.6572 39.0012 69.0006C39.0012 68.344 39.1305 67.6938 39.3818 67.0872C39.6331 66.4806 40.0014 65.9294 40.4657 65.4651C40.93 65.0008 41.4812 64.6325 42.0878 64.3812C42.6944 64.1299 43.3446 64.0006 44.0012 64.0006Z" fill="white"/>
<path d="M84.0012 64.0006C85.3273 64.0006 86.5991 64.5274 87.5367 65.4651C88.4744 66.4028 89.0012 67.6745 89.0012 69.0006C89.0012 70.3267 88.4744 71.5984 87.5367 72.5361C86.5991 73.4738 85.3273 74.0006 84.0012 74.0006C83.3446 74.0006 82.6944 73.8713 82.0878 73.62C81.4812 73.3687 80.93 73.0004 80.4657 72.5361C80.0014 72.0718 79.6331 71.5206 79.3818 70.914C79.1305 70.3074 79.0012 69.6572 79.0012 69.0006C79.0012 68.344 79.1305 67.6938 79.3818 67.0872C79.6331 66.4806 80.0014 65.9294 80.4657 65.4651C80.93 65.0008 81.4812 64.6325 82.0878 64.3812C82.6944 64.1299 83.3446 64.0006 84.0012 64.0006Z" fill="white"/>
<path opacity="0.2" d="M32.7366 39.0008C31.9952 39.0037 31.2714 39.2263 30.6565 39.6404C29.979 40.1153 29.4775 40.8009 29.2302 41.5904C28.983 42.38 29.0037 43.2291 29.2893 44.0056C29.5372 43.2554 30.0157 42.6026 30.6565 42.1404C31.2714 41.7263 31.9952 41.5037 32.7366 41.5008C32.9824 41.4995 33.2277 41.5224 33.469 41.5691C33.9525 41.6635 34.4126 41.8523 34.8232 42.1245C35.2337 42.3968 35.5866 42.7473 35.8616 43.156L43.5471 54.5769C49.5407 51.0395 56.5326 49.0008 64.0061 49.0008C71.4763 49.0008 78.4675 51.038 84.4602 54.572L92.1409 43.156C92.4159 42.7473 92.7688 42.3968 93.1793 42.1245C93.5898 41.8523 94.05 41.6635 94.5335 41.5691C95.5096 41.3791 96.5213 41.5846 97.346 42.1404C98.0104 42.5927 98.512 43.2466 98.7766 44.0056C99.0559 43.2224 99.0669 42.3685 98.8079 41.5783C98.5489 40.7881 98.0347 40.1064 97.346 39.6404C96.5213 39.0846 95.5096 38.8791 94.5335 39.0691C94.05 39.1635 93.5898 39.3523 93.1793 39.6245C92.7688 39.8968 92.4159 40.2473 92.1409 40.656L84.4602 52.072C78.4675 48.538 71.4763 46.5008 64.0061 46.5008C56.5326 46.5008 49.5407 48.5395 43.5471 52.0769L35.8616 40.656C35.5866 40.2473 35.2337 39.8968 34.8232 39.6245C34.4126 39.3523 33.9525 39.1635 33.469 39.0691C33.2277 39.0224 32.9824 38.9995 32.7366 39.0008ZM91.5842 57.4236L90.5442 58.9715C97.6939 65.2349 102.586 73.9841 103.86 83.864C103.968 83.459 104.023 82.9972 103.996 82.4578C103.005 72.6215 98.4214 63.8474 91.5842 57.4236ZM36.428 57.4334C29.5521 63.8988 24.9569 72.7427 24.0061 82.6531C23.9814 83.171 24.0389 83.6129 24.1477 84.0008C25.3938 74.0689 30.2906 65.2734 37.468 58.9812L36.428 57.4334Z" fill="white"/>
<path d="M68.8 114.2L111.6 24.2999L100.8 19.2L56.2 112.7C56.2 112.7 57.6 113.4 59.4 114.2H68.8Z" fill="url(#paint0_linear_3_2)"/>
<path d="M94.1 13.8L114.1 23.3V52C107.2 48.7 61 26.7 61 26.7C61 26.7 64.2 20 67.2 13.8H94.1Z" fill="url(#paint1_radial_3_2)"/>
<path d="M44.5 110.2C44.2 110.8 43.7 111.5 43.8 112.6C43.9 116.7 50.6 120.5 54.5 120.5C57.2 120.5 58.1 119.4 59.1 117.4C60.1 115.4 45.6 107.8 44.5 110.2Z" fill="url(#paint2_radial_3_2)"/>
<path d="M90.6 25.1C90.6 25.1 100.9 27.6 101.7 28.3C102.5 29 100.4 33 100 33.6C96.7 37.6 86.4 59.7 86.4 59.7L76.9 54.3C76.9 54.3 85.4 38.5 88.4 32.9C90.3 29.1 90.6 25.1 90.6 25.1Z" fill="url(#paint3_linear_3_2)"/>
<path d="M114.4 19.9C116.2 21.2 118.6 20.9 120.5 20.6C121.8 20.4 119.8 22.3 117.6 26.7C115.4 31.1 115.5 31.4 115.2 31.1C114.9 30.8 105 25.2 105.3 24.7C105.7 24.2 107.3 13.3 108.1 13.6C111 14.3 111.5 17.8 114.4 19.9Z" fill="url(#paint4_linear_3_2)"/>
<path d="M99 32.2001C99.7 31.1001 102.9 24.3 108 24.3C110.3 24.3 114.7 30.1 115.1 30.9C115.4 31.6 114.4 34.4 113.9 33.1C113.3 31.6 110.8 28.4 108.1 28.4C105.4 28.4 101.7 31.5 100.8 32.6C99.9 33.6 98.3 33.3001 99 32.2001Z" fill="url(#paint5_linear_3_2)"/>
<path d="M98.8 31.8C99.3 31 101.6 27.5 102.7 26.4C103.8 25.3 106.6 22.4 109 22C111.4 21.6 113.9 26.5 113.1 27.5C112.5 28.2 111.5 27.4 110.3 26.4C109.1 25.5 108.3 23.7 104.5 26.6C103.2 27.6 101.9 28.4 98.9 32.7C98.1 33.8 98.3 32.6 98.8 31.8Z" fill="url(#paint6_linear_3_2)"/>
<path d="M86.4 61C86.8 60.2 87.3 59 86.2 58.1C85 57.2 79.4 54.2 78.4 54C77.4 53.8 76.6 54 76.2 54.7C75.8 55.4 45.1 108 44.5 109.5C43.9 111 43.8 112.1 44.7 112.4C45.6 112.7 55.9 117.6 56.9 118.7C57.9 119.8 58.4 118.6 58.8 118C60.7 115.6 85.9 61.8 86.4 61Z" fill="url(#paint7_linear_3_2)"/>
<path d="M99.5 31.6C100 30.9 101.2 28.9 102.7 27.1C103.7 25.9 109.1 23.3 110.3 19.1C111 16.8 109.9 14.5 108.4 13.5C103.3 10.4 94.5 5.5 81.6 5.5C72.9 5.5 69.2 8.4 69.2 8.4H73.6L88.9 14.4L90.8 22.4C90.8 22.4 91 25.1 90.1 28.2C89.5 30.7 89.3 32.2 88.4 34.7C89.1 35 90.7 33.9 92.5 34.4C94.1 34.8 95.1 37 96.2 35.7C98.1 33.2 98.7 32.7 99.5 31.6Z" fill="url(#paint8_linear_3_2)"/>
<path d="M90.5 25.4C89.7 18 87.9 11 69.1 11.1C70.3 9.89995 73.2 8.69995 73.2 8.69995L69.1 8.39995C69.1 8.39995 69.7 7.89995 70.9 7.79995C81.9 6.89995 91.7 9.19995 91 23.5C90.9 25.8 90.7 26.8 90.5 25.4Z" fill="url(#paint9_linear_3_2)"/>
<path d="M69.1 11.1C70.4 10.6 72.2 10.3 75.6 10.5C79.8 10.7 85.1 12.3 87.3 14.3C88.4 15.3 88.3 14.5 87.1 13.2C84 9.60001 79.3 8.80001 73.2 8.70001C72.5 8.60001 70.2 9.90001 69.1 11.1Z" fill="url(#paint10_linear_3_2)"/>
<path d="M120.7 20.6L126.2 23.4C126.2 23.4 124.1 26.2 122.4 29.4C120.6 32.8 119.4 36.5 119.4 36.5L114.1 33.3C114.1 33.3 115.4 29.7 117.3 26.2C118.8 23.3 120.7 20.6 120.7 20.6Z" fill="url(#paint11_linear_3_2)"/>
<path d="M126.2 23.4C126.6 23.6 125.3 26.7 123.4 30.3C121.5 33.9 119.7 36.7 119.4 36.5C119 36.3 120.3 33.2 122.2 29.6C124 26 125.8 23.2 126.2 23.4Z" fill="#BFC0D0"/>
</g>
<defs>
<linearGradient id="paint0_linear_3_2" x1="76.722" y1="64.933" x2="89.179" y2="71.0079" gradientUnits="userSpaceOnUse">
<stop offset="0.001"/>
<stop offset="1" stop-opacity="0"/>
</linearGradient>
<radialGradient id="paint1_radial_3_2" cx="0" cy="0" r="1" gradientUnits="userSpaceOnUse" gradientTransform="translate(95.24 25.1301) rotate(116.706) scale(16.1806 27.9983)">
<stop/>
<stop offset="1" stop-opacity="0"/>
</radialGradient>
<radialGradient id="paint2_radial_3_2" cx="0" cy="0" r="1" gradientUnits="userSpaceOnUse" gradientTransform="translate(51.2071 114.958) rotate(26.1166) scale(7.901 4.49749)">
<stop offset="0.417" stop-color="#0C0C12"/>
<stop offset="1" stop-color="#3D4651"/>
</radialGradient>
<linearGradient id="paint3_linear_3_2" x1="84.758" y1="39.174" x2="94.522" y2="44.149" gradientUnits="userSpaceOnUse">
<stop stop-color="#344351"/>
<stop offset="0.1" stop-color="#9697A0"/>
<stop offset="0.181" stop-color="#8B8C95"/>
<stop offset="0.351" stop-color="#787A83"/>
<stop offset="0.47" stop-color="#71747D"/>
<stop offset="0.591" stop-color="#777982"/>
<stop offset="0.749" stop-color="#87898F"/>
<stop offset="0.8" stop-color="#8E8F94"/>
<stop offset="0.849" stop-color="#3D3B42"/>
<stop offset="0.9" stop-color="#606E84"/>
</linearGradient>
<linearGradient id="paint4_linear_3_2" x1="117.884" y1="29.257" x2="106.863" y2="14.364" gradientUnits="userSpaceOnUse">
<stop offset="0.27" stop-color="#262B33"/>
<stop offset="0.45" stop-color="#74747E"/>
<stop offset="0.54" stop-color="#B0B0BC"/>
<stop offset="0.73" stop-color="#74747E"/>
</linearGradient>
<linearGradient id="paint5_linear_3_2" x1="98.542" y1="30.424" x2="114.815" y2="28.322" gradientUnits="userSpaceOnUse">
<stop offset="0.14" stop-color="#606E84"/>
<stop offset="0.4" stop-color="#9899A5"/>
<stop offset="0.73" stop-color="#475768"/>
<stop offset="0.92" stop-color="#262B33"/>
</linearGradient>
<linearGradient id="paint6_linear_3_2" x1="106.128" y1="31.808" x2="104.549" y2="22.854" gradientUnits="userSpaceOnUse">
<stop stop-color="#101215" stop-opacity="0.1"/>
<stop offset="0.46" stop-color="#101215" stop-opacity="0.7"/>
<stop offset="0.7" stop-color="#474951"/>
<stop offset="0.91" stop-color="#7B7D88"/>
</linearGradient>
<linearGradient id="paint7_linear_3_2" x1="58.131" y1="81.721" x2="73.237" y2="89.154" gradientUnits="userSpaceOnUse">
<stop offset="0.115" stop-color="#2C3952"/>
<stop offset="0.374" stop-color="#3D414E"/>
<stop offset="0.55" stop-color="#474A54"/>
<stop offset="0.754" stop-color="#4E5057"/>
<stop offset="0.892" stop-color="#323945"/>
<stop offset="1" stop-color="#143052"/>
</linearGradient>
<linearGradient id="paint8_linear_3_2" x1="81.508" y1="31.679" x2="93.19" y2="6.047" gradientUnits="userSpaceOnUse">
<stop offset="0.118" stop-color="#6D7078" stop-opacity="0"/>
<stop offset="0.2" stop-color="#6D7078" stop-opacity="0.7"/>
<stop offset="0.34" stop-color="#35363A"/>
<stop offset="0.374" stop-color="#1D1F22"/>
<stop offset="0.4" stop-color="#101215"/>
<stop offset="0.5" stop-color="#16171A"/>
<stop offset="0.56" stop-color="#292A2E"/>
<stop offset="0.688" stop-color="#4B4D51"/>
<stop offset="0.807" stop-color="#63666B"/>
<stop offset="0.915" stop-color="#72757B"/>
<stop offset="1" stop-color="#777A80"/>
</linearGradient>
<linearGradient id="paint9_linear_3_2" x1="69.064" y1="16.837" x2="91.026" y2="16.837" gradientUnits="userSpaceOnUse">
<stop stop-color="#4A4D56"/>
<stop offset="1" stop-color="#29292D"/>
</linearGradient>
<linearGradient id="paint10_linear_3_2" x1="69.064" y1="11.697" x2="88.054" y2="11.697" gradientUnits="userSpaceOnUse">
<stop stop-color="#767880"/>
<stop offset="0.41" stop-color="#0C0A0B"/>
</linearGradient>
<linearGradient id="paint11_linear_3_2" x1="116.332" y1="34.756" x2="123.707" y2="21.982" gradientUnits="userSpaceOnUse">
<stop stop-color="#858997"/>
<stop offset="0.23" stop-color="#244668"/>
<stop offset="0.282" stop-color="#1A3249"/>
<stop offset="0.4" stop-color="#040506"/>
<stop offset="0.464" stop-color="#313236"/>
<stop offset="0.546" stop-color="#65656E"/>
<stop offset="0.607" stop-color="#868691"/>
<stop offset="0.64" stop-color="#92929E"/>
</linearGradient>
<clipPath id="clip0_3_2">
<rect width="128" height="128" fill="white"/>
</clipPath>
</defs>
</svg>
